<?xml version="1.0" encoding="UTF-8" standalone="no"?>
<!-- Generator: Adobe Illustrator 22.0.1, SVG Export Plug-In . SVG Version: 6.00 Build 0)  -->

<svg
   version="1.1"
   id="Layer_1"
   x="0px"
   y="0px"
   viewBox="0 0 168.3 176.6"
   style="enable-background:new 0 0 168.3 176.6;"
   xml:space="preserve"
   sodipodi:docname="wheregroup-logo-icon.svg"
   inkscape:version="1.1 (ce6663b3b7, 2021-05-25)"
   xmlns:inkscape="http://www.inkscape.org/namespaces/inkscape"
   xmlns:sodipodi="http://sodipodi.sourceforge.net/DTD/sodipodi-0.dtd"
   xmlns="http://www.w3.org/2000/svg"
   xmlns:svg="http://www.w3.org/2000/svg"><defs
   id="defs13" /><sodipodi:namedview
   id="namedview11"
   pagecolor="#ffffff"
   bordercolor="#666666"
   borderopacity="1.0"
   inkscape:pageshadow="2"
   inkscape:pageopacity="0.0"
   inkscape:pagecheckerboard="0"
   showgrid="false"
   inkscape:zoom="4.9320497"
   inkscape:cx="84.143515"
   inkscape:cy="88.40138"
   inkscape:window-width="1916"
   inkscape:window-height="1029"
   inkscape:window-x="1920"
   inkscape:window-y="24"
   inkscape:window-maximized="1"
   inkscape:current-layer="g8" />
<style
   type="text/css"
   id="style2">
	.st0{fill:#B11E40;}
</style>
<g
   id="g8">
	<path
   class="st0"
   d="M5.2,36C16.1,21.1,31.1,10.4,48.7,4.9c-1.2,2.1-2,4.5-2,7c-0.1,23.8,31.7,37.3,51.5,39.3   c16.5,1.6,40.6-6.3,32-27.1c-1.1-2.6-2.7-4.9-4.4-7.1c13.6,8.9,25,20.7,33.4,34.7c-2-1.6-4.1-3.2-6.5-4.2   c-20.8-8.9-27.4,18.2-26.1,33.6c1.6,18.5,13.4,51.7,36.7,50.6c1.9-0.1,3.9-0.8,5.6-1.8c-5.3,15.6-14.6,29.1-27.5,39.5   c1.1-3.3,2.1-6.8,2.4-10.3c2.8-26-15.4-49.6-42.4-49.9c-30.4-0.4-55.9,26.4-56.3,56.3c-0.1,3.9,0.6,7.8,1.6,11.5   c-19.5-10-35.3-25.5-45.7-44.8c4.7,1.5,9.6,2.5,14.5,2.5c30.3-0.3,57.4-25.7,56.7-56.7c-0.6-28-25-47.7-52.2-45.6   C14.9,32.7,9.9,34.1,5.2,36z"
   id="path4"
   style="fill:#cf003d;fill-opacity:1" />
	<path
   class="st0"
   d="M62.7,12.6C62.6,0.1,79.7-0.7,88.5,0.9c11.5,2,25.6,8.5,30.4,20c5.7,13.8-11.7,18.3-22,17.2   C84.3,36.6,62.8,27.9,62.7,12.6z"
   id="path6"
   style="fill:#cf003d;fill-opacity:1" />
</g>
</svg>
